<svg version="1.1" xmlns="http://www.w3.org/2000/svg" xmlns:xlink="http://www.w3.org/1999/xlink" width="95.07006" height="82.58334" viewBox="0,0,95.07006,82.58334"><g transform="translate(-80.46497,-86.70833)"><g data-paper-data="{&quot;isPaintingLayer&quot;:true}" fill-rule="nonzero" stroke-linecap="butt" stroke-linejoin="miter" stroke-miterlimit="10" stroke-dasharray="" stroke-dashoffset="0" style="mix-blend-mode: normal"><path d="M123.6462,128.19916v-27.4197h8.52234v27.4197z" fill="#f4ff00" stroke="none" stroke-width="0"/><path d="M132.67367,134.02407l4.7663,8.25548l-4.7663,8.25548h-9.53261l-4.7663,-8.25548l4.7663,-8.25548z" fill="#f4ff00" stroke="none" stroke-width="0"/><path d="M133.69265,132.25915l5.78528,10.0204l-5.78528,10.0204h-11.57056l-5.78528,-10.0204l5.78528,-10.0204z" fill="none" stroke="#f4ff00" stroke-width="1"/><path d="M142.57365,145.478l24.04492,13.17885l-4.09613,7.47342l-24.04492,-13.17885z" fill="#f4ff00" stroke="none" stroke-width="0"/><path d="M117.78291,152.45389l-23.56208,14.02385l-4.35876,-7.32335l23.56208,-14.02385z" data-paper-data="{&quot;index&quot;:null}" fill="#f4ff00" stroke="none" stroke-width="0"/><path d="M121.40926,97.96338l6.4981,-11.25505l6.4981,11.25505z" fill="#f4ff00" stroke="none" stroke-width="0"/><path d="M162.53882,169.29167l6.49811,-11.25505l6.49811,11.25505z" fill="#f4ff00" stroke="none" stroke-width="0"/><path d="M80.46497,169.29167l6.49811,-11.25505l6.49811,11.25505z" fill="#f4ff00" stroke="none" stroke-width="0"/></g></g></svg>