<svg version="1.1" xmlns="http://www.w3.org/2000/svg" xmlns:xlink="http://www.w3.org/1999/xlink" width="139.06288" height="104.64545" viewBox="0,0,139.06288,104.64545"><g transform="translate(-28.94922,-57.35455)"><g data-paper-data="{&quot;isPaintingLayer&quot;:true}" fill-rule="nonzero" stroke-linejoin="miter" stroke-miterlimit="10" stroke-dasharray="" stroke-dashoffset="0" style="mix-blend-mode: normal"><path d="M102.5121,159.5v-63h63v63z" fill="#fdff83" stroke="#000000" stroke-width="5" stroke-linecap="butt"/><path d="M90.4879,159.5v-63h18.62903v63z" fill="#fdff83" stroke="#000000" stroke-width="5" stroke-linecap="butt"/><text transform="translate(119.44001,133.76875) scale(0.34083,0.5)" font-size="40" xml:space="preserve" fill="#000000" fill-rule="nonzero" stroke="none" stroke-width="1" stroke-linecap="butt" stroke-linejoin="miter" stroke-miterlimit="10" stroke-dasharray="" stroke-dashoffset="0" font-family="Handwriting" font-weight="normal" text-anchor="start" style="mix-blend-mode: normal"><tspan x="0" dy="0">Pix-6</tspan></text><path d="M96.7,107c0,-1.933 1.567,-3.5 3.5,-3.5c1.933,0 3.5,1.567 3.5,3.5c0,1.933 -1.567,3.5 -3.5,3.5c-1.933,0 -3.5,-1.567 -3.5,-3.5z" fill="#00ff23" stroke="none" stroke-width="0" stroke-linecap="butt"/><path d="M90.7038,107.68789c0,0 -8.13877,-2.0314 -10.00244,-1.50872c-7.79489,2.18612 -4.27088,22.23375 -7.14459,26.20129c-3.82697,5.28365 -10.31974,-25.0931 -20.78796,-30.03615c-14.50651,-6.84992 -18.22037,8.0697 -21.38299,1.66732c-4.87285,-9.86455 32.65132,-44.65708 32.65132,-44.65708" fill="none" stroke="#000000" stroke-width="4" stroke-linecap="round"/></g></g></svg>